<?xml version="1.0" encoding="UTF-8"?>
<svg version="1.1" xmlns="http://www.w3.org/2000/svg" width="120" height="120">
<path d="M0 0 C11.53323266 9.37007555 19.03783031 21.13279116 21 36 C21.93257558 50.81360435 19.32515503 64.75291615 9.73095703 76.56201172 C-0.46331552 88.08165015 -12.66120174 95.22322335 -28.2265625 96.203125 C-43.50400269 96.41384831 -57.19902245 92.68561108 -68.56982422 81.98632812 C-79.42163984 71.18267693 -85.03726136 58.79855143 -85.25 43.375 C-85.07969182 28.62011901 -80.04678734 15.53102799 -69.5625 5 C-50.01026703 -13.3285558 -22.23977751 -15.03572688 0 0 Z M-52 21 C-52.66 21.66 -53.32 22.32 -54 23 C-53.69371213 26.54399257 -52.10501726 28.25057141 -49.62109375 30.671875 C-48.94755859 31.33574219 -48.27402344 31.99960937 -47.58007812 32.68359375 C-46.51950195 33.70646484 -46.51950195 33.70646484 -45.4375 34.75 C-44.72658203 35.44738281 -44.01566406 36.14476562 -43.28320312 36.86328125 C-41.52869286 38.5824658 -39.76756648 40.29425872 -38 42 C-39.35443086 45.05777443 -40.84704736 47.04421157 -43.29296875 49.3125 C-43.92267578 49.91320312 -44.55238281 50.51390625 -45.20117188 51.1328125 C-46.53162482 52.38346443 -47.86763903 53.62822504 -49.20898438 54.8671875 C-49.83482422 55.46789062 -50.46066406 56.06859375 -51.10546875 56.6875 C-51.68449951 57.22761719 -52.26353027 57.76773438 -52.86010742 58.32421875 C-54.25736977 59.97299651 -54.25736977 59.97299651 -53.6809082 62.20703125 C-53.4562085 62.79871094 -53.23150879 63.39039063 -53 64 C-51.20730806 64.81417722 -51.20730806 64.81417722 -49 65 C-46.96202557 63.65480056 -46.96202557 63.65480056 -45.109375 61.59765625 C-44.40039062 60.87255859 -43.69140625 60.14746094 -42.9609375 59.40039062 C-42.23132812 58.62888672 -41.50171875 57.85738281 -40.75 57.0625 C-40.00492188 56.29486328 -39.25984375 55.52722656 -38.4921875 54.73632812 C-36.64980263 52.83489246 -34.8200352 50.92279952 -33 49 C-29.94222557 50.35443086 -27.95578843 51.84704736 -25.6875 54.29296875 C-25.08679688 54.92267578 -24.48609375 55.55238281 -23.8671875 56.20117188 C-22.61653557 57.53162482 -21.37177496 58.86763903 -20.1328125 60.20898438 C-19.53210938 60.83482422 -18.93140625 61.46066406 -18.3125 62.10546875 C-17.77238281 62.68449951 -17.23226562 63.26353027 -16.67578125 63.86010742 C-15.02700349 65.25736977 -15.02700349 65.25736977 -12.79296875 64.6809082 C-12.20128906 64.4562085 -11.60960937 64.23150879 -11 64 C-10.18582278 62.20730806 -10.18582278 62.20730806 -10 60 C-11.34519944 57.96202557 -11.34519944 57.96202557 -13.40234375 56.109375 C-14.12744141 55.40039062 -14.85253906 54.69140625 -15.59960938 53.9609375 C-16.37111328 53.23132813 -17.14261719 52.50171875 -17.9375 51.75 C-18.70513672 51.00492188 -19.47277344 50.25984375 -20.26367188 49.4921875 C-22.16510754 47.64980263 -24.07720048 45.8200352 -26 44 C-24.64556914 40.94222557 -23.15295264 38.95578843 -20.70703125 36.6875 C-20.07732422 36.08679687 -19.44761719 35.48609375 -18.79882812 34.8671875 C-17.46837518 33.61653557 -16.13236097 32.37177496 -14.79101562 31.1328125 C-14.16517578 30.53210937 -13.53933594 29.93140625 -12.89453125 29.3125 C-12.31550049 28.77238281 -11.73646973 28.23226562 -11.13989258 27.67578125 C-9.74263023 26.02700349 -9.74263023 26.02700349 -10.3190918 23.79296875 C-10.65614136 22.90544922 -10.65614136 22.90544922 -11 22 C-12.79269194 21.18582278 -12.79269194 21.18582278 -15 21 C-17.03797443 22.34519944 -17.03797443 22.34519944 -18.890625 24.40234375 C-19.59960938 25.12744141 -20.30859375 25.85253906 -21.0390625 26.59960938 C-21.76867187 27.37111328 -22.49828125 28.14261719 -23.25 28.9375 C-23.99507812 29.70513672 -24.74015625 30.47277344 -25.5078125 31.26367188 C-27.35019737 33.16510754 -29.1799648 35.07720048 -31 37 C-34.04119394 35.64752902 -36.06224575 34.15125209 -38.34765625 31.7421875 C-38.95287109 31.11699219 -39.55808594 30.49179687 -40.18164062 29.84765625 C-41.44131006 28.52650762 -42.69910809 27.20357227 -43.95507812 25.87890625 C-44.8609668 24.94498047 -44.8609668 24.94498047 -45.78515625 23.9921875 C-46.33051025 23.41839355 -46.87586426 22.84459961 -47.43774414 22.25341797 C-49.05617354 20.68710278 -49.05617354 20.68710278 -52 21 Z " fill="#AFB8C2" transform="translate(92,17)"/>
</svg>
